<?xml version="1.0" encoding="utf-8"?>
<!-- Generator: Adobe Illustrator 23.0.3, SVG Export Plug-In . SVG Version: 6.00 Build 0)  -->
<svg id="Vrstva_1" style="enable-background:new 0 0 128 128;" version="1.1" viewBox="0 0 128 128" x="0px" xml:space="preserve"
	 xmlns="http://www.w3.org/2000/svg" xmlns:xlink="http://www.w3.org/1999/xlink" y="0px">
<style type="text/css">
	.st0{fill:#ffffff;}
</style>
<g>
	<path class="st0" d="M26.6,25.1v81.1c0,4.6,3.7,8.3,8.3,8.3H99c4.6,0,8.3-3.7,8.3-8.3V27.3c0-4.6-3.7-8.3-8.3-8.3H32.7
		C29.3,19.1,26.6,21.8,26.6,25.1z M96.8,106.5H37.2c-1.4,0-2.6-1.1-2.6-2.6V29.6c0-1.4,1.1-2.6,2.6-2.6h59.6c1.4,0,2.6,1.1,2.6,2.6
		v74.3C99.3,105.3,98.2,106.5,96.8,106.5z"/>
	<rect class="st0" height="62.7" width="8" x="50.4" y="35.5"/>

		<rect class="st0" height="49.5" transform="matrix(6.123234e-17 -1 1 6.123234e-17 18.7614 115.4034)" width="8" x="63.1" y="23.6"/>

		<rect class="st0" height="49.5" transform="matrix(6.123234e-17 -1 1 6.123234e-17 0.4414 133.7233)" width="8" x="63.1" y="41.9"/>

		<rect class="st0" height="49.5" transform="matrix(6.123234e-17 -1 1 6.123234e-17 -17.8785 152.0432)" width="8" x="63.1" y="60.2"/>
	<path class="st0" d="M37.8,35.5H24.3c-2.5,0-4.5-2-4.5-4.5V17.5c0-2.5,2-4.5,4.5-4.5h13.5c2.5,0,4.5,2,4.5,4.5V31
		C42.3,33.4,40.3,35.5,37.8,35.5z"/>
</g>
</svg>
