<svg width="128" height="128" viewBox="0 0 128 128" fill="none" xmlns="http://www.w3.org/2000/svg">
<path fill-rule="evenodd" clip-rule="evenodd" d="M78.7 70.47C88.4 65.2 94.98 54.93 94.98 43.11C94.98 25.93 81.05 12 63.87 12C46.69 12 32.76 25.93 32.76 43.11C32.76 54.92 39.35 65.2 49.05 70.47C30.42 76.39 16.67 93.13 14.96 113.33H24.68C26.78 93.43 43.42 77.86 63.88 77.86H75.5L83 72L78.7 70.47ZM63.88 21.13C51.74 21.13 41.89 30.97 41.89 43.12C41.89 55.27 51.74 65.11 63.88 65.11C76.02 65.11 85.87 55.27 85.87 43.12C85.87 30.98 76.02 21.13 63.88 21.13Z" fill="black"/>
<path fill-rule="evenodd" clip-rule="evenodd" d="M114 94C114 104.493 105.493 113 95 113C84.5066 113 76 104.493 76 94C76 83.5066 84.5066 75 95 75C105.493 75 114 83.5066 114 94ZM85 86.8284L87.8285 84L94.8995 91.0711L101.971 84L104.799 86.8284L97.728 93.8995L104.799 100.971L101.971 103.799L94.8995 96.728L87.8285 103.799L85.0001 100.971L92.0711 93.8995L85 86.8284Z" fill="black"/>
</svg>
