<?xml version="1.0" encoding="UTF-8" standalone="no"?>
<!-- Generator: Adobe Illustrator 19.0.0, SVG Export Plug-In . SVG Version: 6.00 Build 0)  -->

<svg
   xmlns:dc="http://purl.org/dc/elements/1.1/"
   xmlns:cc="http://creativecommons.org/ns#"
   xmlns:rdf="http://www.w3.org/1999/02/22-rdf-syntax-ns#"
   xmlns:svg="http://www.w3.org/2000/svg"
   xmlns="http://www.w3.org/2000/svg"
   xmlns:sodipodi="http://sodipodi.sourceforge.net/DTD/sodipodi-0.dtd"
   xmlns:inkscape="http://www.inkscape.org/namespaces/inkscape"
   version="1.1"
   id="Layer_1"
   x="0px"
   y="0px"
   viewBox="0 0 508 508"
   style="enable-background:new 0 0 508 508;"
   xml:space="preserve"
   sodipodi:docname="certificates.svg"
   inkscape:version="0.92.5 (2060ec1f9f, 2020-04-08)"><metadata
   id="metadata79"><rdf:RDF><cc:Work
       rdf:about=""><dc:format>image/svg+xml</dc:format><dc:type
         rdf:resource="http://purl.org/dc/dcmitype/StillImage" /><dc:title></dc:title></cc:Work></rdf:RDF></metadata><defs
   id="defs77" /><sodipodi:namedview
   pagecolor="#434343"
   bordercolor="#666666"
   borderopacity="1"
   objecttolerance="10"
   gridtolerance="10"
   guidetolerance="10"
   inkscape:pageopacity="0"
   inkscape:pageshadow="2"
   inkscape:window-width="1848"
   inkscape:window-height="1016"
   id="namedview75"
   showgrid="false"
   inkscape:zoom="0.92913386"
   inkscape:cx="65.459757"
   inkscape:cy="311.14072"
   inkscape:window-x="72"
   inkscape:window-y="27"
   inkscape:window-maximized="1"
   inkscape:current-layer="Layer_1" />
<g
   id="g6">
	<g
   id="g4">
		<path
   fill="#FFFFFF"
   d="M456.05,0h-293.5c-3.7,0-7.3,1.5-10,4.1L41.95,114.8c-2.6,2.6-4.1,6.2-4.1,10v369.1c0,7.8,6.3,14.1,14.1,14.1h404.1    c7.8,0,14.1-6.3,14.1-14.1V14.1C470.15,6.3,463.85,0,456.05,0z M148.45,48.2v62.5h-62.5L148.45,48.2z M441.95,479.8h-376V138.9    h96.5c7.8,0,14.1-6.3,14.1-14.1V28.2h265.4V479.8z"
   id="path2" />
	</g>
</g>
<g
   id="g12">
	<g
   id="g10">
		<path
   d="m 416.78165,426.5 -325.6633,0.0476 c 0,0 -0.06835,6.25244 -0.06835,14.05244 0,7.8 0.02079,14.1 0.02079,14.1 H 416.72922 c 0,0 0.0208,-6.3 0.0208,-14.1 0,-7.8 0.0317,-14.1 0.0317,-14.1 z"
   id="path8"
   inkscape:connector-curvature="0"
   style="fill:#ffffff"
   sodipodi:nodetypes="ccsccsc" />
	</g>
</g>
<g
   id="g18">
	<g
   id="g16">
		<path
   d="M 249.94243,339.4 H 91.074391 c 0,0 -0.02439,6.3 -0.02439,14.1 0,7.7 0.0076,14.08318 0.0076,14.08318 L 249.94243,367.6 c 0,0 0.008,-6.3 0.008,-14.1 0,-7.8 -0.008,-14.1 -0.008,-14.1 z"
   id="path14"
   inkscape:connector-curvature="0"
   style="fill:#ffffff"
   sodipodi:nodetypes="ccsccsc" />
	</g>
</g>
<g
   id="g24">
	<g
   id="g22">
		<path
   d="m 211.15924,252.21682 -120.101666,0.0168 c 0,0 -0.0076,6.26637 -0.0076,14.06637 0,7.8 0.0076,14.1 0.0076,14.1 H 211.15924 c 0,0 -0.009,-6.3 -0.009,-14.1 0,-7.8 0.009,-14.08318 0.009,-14.08318 z"
   id="path20"
   inkscape:connector-curvature="0"
   style="fill:#ffffff"
   sodipodi:nodetypes="ccsccsc" />
	</g>
</g>
<g
   id="g30">
	<g
   id="g28">
		<path
   d="M 211.10879,165.23453 91.070785,165.1 c 0,0 -0.02079,6.3 -0.02079,14.1 0,7.8 0.02079,14.14756 0.02079,14.14756 l 120.105275,0.0197 c 0,0 -0.0261,-6.36727 -0.0261,-14.16727 0,-7.8 -0.0412,-13.96547 -0.0412,-13.96547 z"
   id="path26"
   inkscape:connector-curvature="0"
   style="fill:#ffffff"
   sodipodi:nodetypes="ccsccsc" />
	</g>
</g>
<g
   id="g36">
	<g
   id="g34">
		<path
   d="m 416.82922,78 -189.53801,0.03363 c 0,0 -0.0412,6.266367 -0.0412,14.066367 0,7.8 0.0412,14.1 0.0412,14.1 h 189.62826 c 0,0 -0.16947,-6.3 -0.16947,-14.1 0,-7.8 0.0792,-14.1 0.0792,-14.1 z"
   id="path32"
   inkscape:connector-curvature="0"
   style="fill:#ffffff"
   sodipodi:nodetypes="ccsccscc" />
	</g>
</g>
<g
   id="g42">
	<g
   id="g40">
		<path
   fill="#FFFFFF"
   d="M319.45,133.4c-53.8,0-97.5,43.8-97.5,97.5c-0.2,36.9,20.6,69,51,85.5v80.2c0,5,2.5,10,7.1,12.2c3.8,1.9,10.8,1.9,14.1,0    l25.2-14.6l25.2,14.6c4.4,2.5,9.7,2.5,14.1,0c4.4-2.5,7.1-7.2,7.1-12.2v-80.1c30.4-16.5,51.2-48.7,51.2-85.6    C416.95,177.1,373.15,133.4,319.45,133.4z M319.25,363.8c-2.5,0-4.9,0.6-7.1,1.9l-11.1,6.4v-45.4c11.9,2.2,24.4,2.2,36.3,0v45.342    l-11-6.342C324.15,364.4,321.75,363.8,319.25,363.8z M319.25,300.2c-38.2,0-69.3-31.1-69.3-69.3s31.1-69.3,69.3-69.3    c38.2,0,69.3,31.1,69.3,69.3C388.55,269.1,357.45,300.2,319.25,300.2z"
   id="path38" />
	</g>
</g>
<g
   id="g44">
</g>
<g
   id="g46">
</g>
<g
   id="g48">
</g>
<g
   id="g50">
</g>
<g
   id="g52">
</g>
<g
   id="g54">
</g>
<g
   id="g56">
</g>
<g
   id="g58">
</g>
<g
   id="g60">
</g>
<g
   id="g62">
</g>
<g
   id="g64">
</g>
<g
   id="g66">
</g>
<g
   id="g68">
</g>
<g
   id="g70">
</g>
<g
   id="g72">
</g>
</svg>