<?xml version="1.0" encoding="utf-8"?>
<!-- Generator: Adobe Illustrator 23.0.3, SVG Export Plug-In . SVG Version: 6.00 Build 0)  -->
<svg id="Vrstva_1" style="enable-background:new 0 0 128 128;" version="1.1" viewBox="0 0 128 128" x="0px" xml:space="preserve"
	 xmlns="http://www.w3.org/2000/svg" xmlns:xlink="http://www.w3.org/1999/xlink" y="0px">
<style type="text/css">
	.st0{fill:#858585;}
</style>
<path class="st0" d="M109.2,18.3H18.5c-5.7,0-10.3,4.6-10.3,10.3v70.3c0,5.7,4.6,10.3,10.3,10.3h90.7c5.7,0,10.3-4.6,10.3-10.3V28.6
	C119.5,22.9,114.9,18.3,109.2,18.3z M110.8,97.2c0,1.8-1.5,3.3-3.3,3.3H20.2c-1.8,0-3.3-1.5-3.3-3.3v-67c0-1.8,1.5-3.3,3.3-3.3h87.3
	c1.8,0,3.3,1.5,3.3,3.3V97.2z"/>
<rect class="st0" height="39" transform="matrix(6.123234e-17 -1 1 6.123234e-17 18.46 145.7212)" width="8.7" x="77.8" y="44.1"/>
<rect class="st0" height="39" transform="matrix(6.123234e-17 -1 1 6.123234e-17 41.1763 123.0049)" width="8.7" x="77.8" y="21.4"/>
<rect class="st0" height="75.9" transform="matrix(6.123234e-17 -1 1 6.123234e-17 -22.7077 149.986)" width="8.7" x="59.3" y="48.4"/>
<path class="st0" d="M45.3,54.7c3-1.6,5-4.8,5-8.4c0-5.3-4.3-9.6-9.6-9.6c-5.3,0-9.6,4.3-9.6,9.6c0,3.6,2,6.8,5,8.4
	c-5.8,1.8-10,7-10.5,13.2h2.4h0.6h24.2h0.5h2.5C55.3,61.7,51.1,56.6,45.3,54.7z"/>
</svg>
