<?xml version="1.0" encoding="UTF-8" standalone="no"?>
<!-- Generator: Adobe Illustrator 16.0.0, SVG Export Plug-In . SVG Version: 6.00 Build 0)  -->

<svg
   xmlns:dc="http://purl.org/dc/elements/1.1/"
   xmlns:cc="http://creativecommons.org/ns#"
   xmlns:rdf="http://www.w3.org/1999/02/22-rdf-syntax-ns#"
   xmlns:svg="http://www.w3.org/2000/svg"
   xmlns="http://www.w3.org/2000/svg"
   xmlns:sodipodi="http://sodipodi.sourceforge.net/DTD/sodipodi-0.dtd"
   xmlns:inkscape="http://www.inkscape.org/namespaces/inkscape"
   version="1.1"
   id="Capa_1"
   x="0px"
   y="0px"
   width="603.726px"
   height="603.726px"
   viewBox="0 0 603.726 603.726"
   style="enable-background:new 0 0 603.726 603.726;"
   xml:space="preserve"
   sodipodi:docname="logins-2.svg"
   inkscape:version="0.92.5 (2060ec1f9f, 2020-04-08)"><metadata
   id="metadata57"><rdf:RDF><cc:Work
       rdf:about=""><dc:format>image/svg+xml</dc:format><dc:type
         rdf:resource="http://purl.org/dc/dcmitype/StillImage" /><dc:title /></cc:Work></rdf:RDF></metadata><defs
   id="defs55" /><sodipodi:namedview
   pagecolor="#545454"
   bordercolor="#666666"
   borderopacity="1"
   objecttolerance="10"
   gridtolerance="10"
   guidetolerance="10"
   inkscape:pageopacity="0"
   inkscape:pageshadow="2"
   inkscape:window-width="1848"
   inkscape:window-height="1016"
   id="namedview53"
   showgrid="false"
   inkscape:zoom="1.5636232"
   inkscape:cx="132.19811"
   inkscape:cy="311.51276"
   inkscape:window-x="72"
   inkscape:window-y="27"
   inkscape:window-maximized="1"
   inkscape:current-layer="g10" />
<g
   id="g20">
	<g
   id="g18">
		<g
   id="g6">
			<path
   fill="#FFFFFF"
   d="M545.085,82.467h-60.896V59.175c0-32.059-26.081-58.14-58.14-58.14H58.64c-32.059,0-58.14,26.082-58.14,58.14v403.944     c0,32.059,26.082,58.141,58.14,58.141h60.896v23.293c0,32.057,26.082,58.139,58.14,58.139h367.408     c32.059,0,58.141-26.082,58.141-58.139V140.607C603.226,108.548,577.144,82.467,545.085,82.467z M162.376,544.552v-23.293v-41.42     h319.358h78.651v64.713c0,8.449-6.851,15.299-15.301,15.299H177.677C169.226,559.851,162.376,553.001,162.376,544.552z      M560.386,437h-76.197h-42.84H162.376v-38.592v-42.84V140.607c0-8.45,6.85-15.3,15.3-15.3h263.672h42.84h60.896     c8.45,0,15.301,6.851,15.301,15.3V437z M43.34,59.175c0-8.45,6.85-15.3,15.3-15.3h367.409c8.45,0,15.3,6.85,15.3,15.3v23.292     H177.677c-32.059,0-58.14,26.082-58.14,58.14v214.961H43.34V59.175z M58.64,478.419c-8.45,0-15.3-6.85-15.3-15.299v-64.713     h76.196v80.012H58.64L58.64,478.419z"
   id="path2" />
			<path
   fill="#FFFFFF"
   d="M545.085,603.191H177.677c-32.334,0-58.64-26.306-58.64-58.639v-22.793H58.64C26.306,521.759,0,495.454,0,463.119V59.175     C0,26.84,26.306,0.535,58.64,0.535h367.409c32.334,0,58.64,26.306,58.64,58.64v22.792h60.396     c32.335,0,58.641,26.306,58.641,58.64v403.945C603.726,576.885,577.42,603.191,545.085,603.191z M58.64,1.535     C26.857,1.535,1,27.392,1,59.175v403.944c0,31.783,25.857,57.641,57.64,57.641h61.396v23.793     c0,31.782,25.857,57.639,57.64,57.639h367.408c31.783,0,57.641-25.856,57.641-57.639V140.607c0-31.783-25.857-57.64-57.641-57.64     h-61.396V59.175c0-31.783-25.857-57.64-57.64-57.64H58.64z M545.085,560.351H177.677c-8.712,0-15.8-7.087-15.8-15.799v-65.213     h399.009v65.213C560.886,553.264,553.798,560.351,545.085,560.351z M162.876,480.339v64.213c0,8.16,6.64,14.799,14.8,14.799     h367.408c8.161,0,14.801-6.639,14.801-14.799v-64.213H162.876z M120.037,478.919H58.64c-8.712,0-15.8-7.087-15.8-15.799v-65.213     h77.196V478.919z M43.84,398.908v64.213c0,8.16,6.639,14.799,14.8,14.799h60.396v-79.012H43.84z M560.886,437.5H161.876V140.607     c0-8.712,7.088-15.8,15.8-15.8h367.408c8.713,0,15.801,7.088,15.801,15.8V437.5z M162.876,436.5h397.009V140.607     c0-8.161-6.64-14.8-14.801-14.8H177.677c-8.161,0-14.8,6.639-14.8,14.8V436.5z M120.037,356.068H42.84V59.175     c0-8.712,7.088-15.8,15.8-15.8h367.409c8.712,0,15.8,7.088,15.8,15.8v23.792H177.677c-31.783,0-57.64,25.857-57.64,57.64V356.068     z M43.84,355.068h75.196V140.607c0-32.334,26.306-58.64,58.64-58.64h263.172V59.175c0-8.161-6.639-14.8-14.8-14.8H58.64     c-8.161,0-14.8,6.639-14.8,14.8V355.068z"
   id="path4" />
		</g>

		<g
   id="g10"
   transform="matrix(1.091172,0,0,1.1051273,-16.888705,-57.314611)">
			<path
   class="st0"
   d="m 387.59246,318.72207 c 22.25419,-11.39009 37.35032,-33.58674 37.35032,-59.1334 0,-37.13128 -31.95884,-67.23832 -71.37398,-67.23832 -39.41513,0 -71.37397,30.10704 -71.37397,67.23832 0,25.52505 15.11907,47.74331 37.37325,59.1334 -42.74179,12.79495 -74.28766,48.97526 -78.21082,92.63369 h 30.58882 c 4.81792,-43.01004 34.7054,-70.93275 81.64566,-70.93275 46.94027,0 77.65662,27.08268 82.47454,70.11434 l 29.75996,0.81841 c -3.94611,-43.63682 -35.46904,-79.83874 -78.23378,-92.63369 z m -80.30679,-59.11179 c 0,-26.2599 17.62506,-45.48115 45.47719,-45.48115 27.85215,0 47.72106,19.24286 47.72106,45.48115 0,26.2599 -18.86837,43.77413 -46.72052,43.77413 -27.85213,0 -46.47773,-17.51423 -46.47773,-43.77413 z"
   id="path8"
   inkscape:connector-curvature="0"
   style="fill:#ffffff;stroke-width:2.22678542"
   sodipodi:nodetypes="cssscccscccsssss" />
		</g>
		
	</g>
</g>
<g
   id="g22">
</g>
<g
   id="g24">
</g>
<g
   id="g26">
</g>
<g
   id="g28">
</g>
<g
   id="g30">
</g>
<g
   id="g32">
</g>
<g
   id="g34">
</g>
<g
   id="g36">
</g>
<g
   id="g38">
</g>
<g
   id="g40">
</g>
<g
   id="g42">
</g>
<g
   id="g44">
</g>
<g
   id="g46">
</g>
<g
   id="g48">
</g>
<g
   id="g50">
</g>
</svg>