<?xml version="1.0" encoding="utf-8"?>
<!-- Generator: Adobe Illustrator 23.0.3, SVG Export Plug-In . SVG Version: 6.00 Build 0)  -->
<svg id="Vrstva_1" style="enable-background:new 0 0 128 128;" version="1.1" viewBox="0 0 128 128" x="0px" xml:space="preserve"
	 xmlns="http://www.w3.org/2000/svg" xmlns:xlink="http://www.w3.org/1999/xlink" y="0px">
<style type="text/css">
	.st0{fill:#ffffff;}
</style>
<g>
	<path class="st0" d="M86,80.6H42c-2.7,0-4.8,2.2-4.8,4.8v30.5c0,2.8,2.3,5,5,5h43.6c2.8,0,5-2.3,5-5V85.4
		C90.8,82.8,88.6,80.6,86,80.6z M81.2,111.5H46.8V90h34.4V111.5z"/>
	<rect class="st0" height="16.9" width="10.9" x="56.3" y="101.5"/>
	<path class="st0" d="M29.8,27.2v43.7h68.1V27.2H29.8z M38.9,35.8h13.7v8.3H38.9V35.8z M89.3,61.9H38.9v-8.6h50.4V61.9z M89.3,44.1
		H61.6v-8.3h27.7V44.1z"/>
	<path class="st0" d="M102.6,9.5H25.7c-8.4,0-15.2,6.8-15.2,15.2v76.9c0,8.4,6.8,15.2,15.2,15.2h14.8v-9.4H27.8
		c-4.2,0-7.7-3.4-7.7-7.7V26.8c0-4.2,3.4-7.7,7.7-7.7h72.9c4.2,0,7.7,3.4,7.7,7.7v72.9c0,4.2-3.4,7.7-7.7,7.7h-13v9.4h14.9
		c8.4,0,15.2-6.8,15.2-15.2V24.6C117.8,16.3,111,9.5,102.6,9.5z"/>
</g>
</svg>
